<?xml version="1.0" standalone="no"?>
<!DOCTYPE svg PUBLIC "-//W3C//DTD SVG 20010904//EN"
 "http://www.w3.org/TR/2001/REC-SVG-20010904/DTD/svg10.dtd">
<svg version="1.0" xmlns="http://www.w3.org/2000/svg"
 width="260.000000pt" height="260.000000pt" viewBox="0 0 260.000000 260.000000"
 preserveAspectRatio="xMidYMid meet">
<metadata>
Created by potrace 1.14, written by Peter Selinger 2001-2017
</metadata>
<g transform="translate(0.000000,260.000000) scale(0.100000,-0.100000)"
fill="#000000" stroke="none">
<path d="M683 2036 c-56 -27 2 -80 89 -82 32 -1 62 -2 67 -3 11 -1 23 -37 25
-75 1 -17 8 -32 15 -34 9 -3 7 -10 -6 -25 -10 -11 -13 -18 -7 -14 6 4 19 -2
29 -13 16 -18 16 -20 2 -20 -10 0 -17 -4 -17 -10 0 -5 7 -10 16 -10 13 0 14
-3 5 -14 -6 -7 -9 -21 -5 -30 4 -10 1 -16 -9 -16 -8 0 -20 -7 -28 -16 -10 -13
-10 -17 2 -25 10 -6 10 -9 2 -9 -7 0 -15 1 -18 3 -2 1 -11 -7 -19 -18 -10 -14
-11 -24 -4 -32 10 -12 4 -17 -16 -14 -4 1 -17 -9 -28 -21 -14 -16 -22 -19 -25
-10 -3 6 -13 12 -24 12 -10 0 -19 5 -19 10 0 6 -8 10 -18 10 -35 0 -72 24 -72
47 0 12 -4 25 -10 28 -6 3 -10 -4 -10 -17 0 -23 -3 -23 -80 -22 -52 1 -84 -3
-90 -11 -6 -7 -24 -11 -40 -10 -17 1 -30 -1 -30 -6 0 -5 -9 -9 -20 -9 -11 0
-20 -3 -20 -7 0 -9 -48 -33 -65 -33 -5 0 -16 -9 -23 -20 -7 -11 -18 -20 -25
-20 -17 0 -98 -80 -92 -90 3 -5 -6 -17 -20 -28 -13 -11 -21 -22 -17 -26 3 -4
1 -11 -6 -15 -8 -4 -14 -15 -16 -23 -1 -8 -10 -27 -20 -43 -10 -15 -18 -43
-18 -61 0 -19 -4 -31 -9 -28 -5 3 -9 -38 -9 -95 0 -61 4 -101 10 -101 6 0 10
-15 10 -33 0 -19 3 -37 7 -41 4 -3 8 -16 10 -28 2 -12 12 -30 23 -41 11 -10
18 -22 15 -27 -3 -4 2 -11 11 -14 8 -3 13 -10 9 -16 -6 -10 113 -133 135 -138
8 -2 18 -9 24 -16 15 -18 92 -47 101 -38 4 4 5 -2 3 -13 -3 -19 3 -20 165 -23
159 -2 169 -1 174 17 3 11 12 18 21 16 10 -1 25 4 35 13 9 8 17 11 17 7 0 -4
8 -1 18 8 9 8 19 15 22 14 3 0 14 4 25 11 11 6 17 12 12 12 -10 0 68 70 79 70
10 0 40 61 36 73 -1 5 2 6 7 3 5 -4 15 7 23 24 7 16 15 30 18 30 3 0 6 11 6
25 3 40 57 73 74 44 5 -6 23 -12 41 -13 48 -2 51 -32 8 -67 l-33 -27 49 2 c49
2 50 2 50 34 0 25 7 36 29 47 15 8 32 13 36 10 4 -3 11 2 14 11 4 9 13 14 21
10 9 -3 15 0 15 9 0 8 5 15 10 15 6 0 10 9 10 20 0 11 5 20 11 20 5 0 8 4 5 9
-3 5 0 14 8 20 17 14 15 38 -7 79 -10 18 -16 39 -14 45 5 15 196 17 198 2 1
-5 2 -42 3 -81 1 -39 6 -77 12 -85 5 -8 9 -24 8 -37 -1 -13 4 -26 11 -28 7 -3
10 -15 8 -27 -2 -14 7 -33 27 -54 16 -18 30 -37 30 -42 0 -6 5 -11 11 -11 6 0
9 -9 6 -19 -3 -13 3 -23 19 -32 13 -7 26 -21 30 -31 3 -10 10 -16 15 -13 5 4
9 1 9 -5 0 -11 74 -59 76 -50 1 3 11 -4 23 -14 12 -11 21 -15 21 -11 0 4 9 0
20 -10 11 -10 20 -14 20 -9 0 5 4 3 9 -4 11 -19 304 -20 326 -2 8 7 21 10 30
7 8 -4 17 -2 20 3 3 5 23 17 43 27 31 14 202 173 187 173 -2 0 7 20 21 45 13
25 22 45 18 45 -3 0 4 8 15 18 14 11 23 29 23 50 1 17 5 32 10 32 4 0 8 56 8
125 0 77 -4 125 -10 125 -5 0 -10 6 -10 13 0 8 -9 24 -20 37 -11 13 -20 29
-20 37 0 8 -4 12 -9 9 -5 -4 -8 1 -7 9 2 17 -94 124 -106 118 -5 -2 -8 3 -8
11 0 9 -4 16 -10 16 -5 0 -10 5 -10 11 0 5 4 7 10 4 6 -3 10 -1 10 5 0 7 -7 9
-16 6 -9 -3 -27 3 -41 14 -14 11 -30 17 -35 14 -5 -3 -15 0 -23 6 -8 7 -15 9
-15 4 0 -4 -6 0 -14 11 -8 12 -20 16 -34 13 -12 -3 -23 0 -25 6 -4 9 -42 13
-139 12 -94 -1 -137 3 -146 12 -8 7 -18 10 -23 7 -5 -4 -10 -1 -10 4 -1 6 -2
16 -3 21 0 6 -6 14 -13 18 -7 4 -11 16 -9 27 2 11 -2 23 -7 27 -6 4 -11 28
-12 55 0 68 14 76 141 77 77 1 104 -2 104 -11 0 -7 6 -13 13 -13 21 0 8 -65
-17 -89 -14 -13 -38 -21 -70 -23 -44 -3 -50 -6 -57 -29 -3 -15 -4 -31 0 -35 3
-5 34 -9 69 -10 53 0 62 2 62 18 0 21 16 24 23 6 4 -8 8 -4 12 10 4 12 13 22
21 22 15 0 29 43 19 60 -3 5 0 13 8 16 17 6 17 19 -1 50 -6 12 -9 24 -6 27 9
8 -43 57 -60 57 -8 0 -18 5 -21 10 -4 6 -11 8 -16 5 -5 -4 -9 -2 -9 4 0 6 -9
8 -22 3 -13 -4 -78 -7 -145 -6 l-123 1 0 -33 c0 -18 5 -36 10 -39 14 -9 12
-55 -2 -56 -7 -1 -194 -2 -415 -3 -326 -1 -403 2 -403 12 0 7 5 10 10 7 14 -9
12 7 -4 27 -7 10 -16 15 -19 11 -4 -3 -7 3 -7 15 0 12 -4 22 -9 22 -5 0 -8 11
-6 25 1 14 -4 29 -11 33 -19 10 -18 25 2 32 9 4 57 6 105 5 l89 -1 0 38 c0 21
-4 38 -10 38 -5 0 -10 -5 -10 -12 0 -9 -3 -9 -12 0 -16 16 -115 16 -121 0 -3
-10 -9 -10 -26 0 -12 7 -55 12 -100 12 -54 0 -81 -4 -85 -12 -5 -10 -7 -10
-12 0 -7 14 -20 14 -51 -2z m1047 -316 c0 -6 -5 -10 -10 -10 -6 0 -9 -3 -9 -7
3 -21 -3 -31 -22 -36 -11 -3 -23 -15 -26 -26 -3 -12 -11 -21 -18 -21 -8 0 -10
-10 -7 -27 2 -16 2 -25 -2 -22 -4 4 -53 -39 -109 -95 -56 -56 -110 -105 -119
-109 -10 -3 -18 -12 -18 -20 0 -13 -50 -63 -60 -60 -3 1 -17 -9 -32 -23 -31
-27 -43 -31 -35 -10 3 8 -1 22 -9 33 -14 17 -15 17 -13 -2 4 -57 0 -67 -29
-64 -15 2 -32 0 -39 -4 -6 -4 -15 -2 -19 5 -4 6 -2 14 5 16 9 3 5 12 -11 29
-16 18 -19 27 -10 30 18 7 14 21 -9 28 -16 5 -18 9 -8 21 9 11 7 18 -12 35
-20 17 -21 22 -9 30 13 8 11 12 -10 29 -14 11 -19 20 -12 20 18 0 15 27 -4 34
-10 4 -14 12 -10 23 4 9 -1 24 -10 34 -14 15 -14 21 -4 34 10 12 10 15 -3 15
-18 0 -33 33 -17 38 6 2 2 12 -10 22 -18 15 -19 22 -9 43 l11 25 354 1 c229 1
354 -3 354 -9z m-770 -110 c0 -5 -5 -12 -11 -16 -8 -4 -4 -13 12 -25 19 -15
21 -21 10 -28 -14 -9 -9 -42 6 -40 20 3 24 -2 13 -15 -9 -12 -7 -18 9 -32 14
-12 17 -20 9 -25 -7 -5 -4 -14 11 -30 16 -17 18 -25 9 -31 -10 -6 -7 -13 9
-27 20 -17 21 -20 7 -32 -15 -12 -6 -32 16 -35 6 -1 13 -2 16 -3 3 0 -2 -8
-10 -17 -9 -8 -14 -20 -11 -25 4 -5 -3 -9 -14 -9 -17 0 -21 6 -21 31 0 17 -4
28 -10 24 -5 -3 -10 1 -10 9 0 9 -9 32 -20 51 -11 20 -18 40 -15 46 4 5 1 9
-4 9 -6 0 -36 25 -66 56 -49 50 -53 58 -39 69 12 8 14 14 6 19 -19 11 -14 26
9 26 11 0 17 5 14 10 -3 6 2 10 12 10 17 1 17 1 0 14 -13 10 -15 15 -5 18 24
8 68 7 68 -2z m842 -20 c7 -14 17 -28 23 -33 6 -4 0 -10 -12 -13 -13 -4 -23
-10 -23 -14 0 -5 -9 -11 -20 -15 -29 -9 -104 -86 -119 -121 -7 -18 -20 -40
-29 -50 -25 -28 -45 -71 -38 -82 3 -5 -1 -15 -9 -22 -8 -7 -13 -16 -10 -20 3
-5 -3 -11 -12 -14 -30 -9 -193 -4 -193 5 0 5 10 17 21 27 12 9 47 43 77 75 31
31 62 57 69 57 7 0 22 14 32 31 11 18 22 26 25 20 11 -17 26 -13 20 4 -4 8 -1
15 5 15 6 0 11 8 11 17 0 23 29 53 46 46 10 -4 14 3 14 23 0 15 3 25 6 22 8
-8 51 35 46 46 -3 4 1 12 9 16 23 15 47 7 61 -20z m-700 -440 c-1 -7 -9 -19
-18 -27 -8 -9 -12 -23 -9 -34 4 -12 2 -19 -8 -19 -10 0 -13 12 -11 43 2 56 1
54 27 52 12 -2 21 -8 19 -15z m-14 -159 c28 -24 28 -41 1 -36 -27 5 -32 10
-36 35 -4 25 5 25 35 1z"/>
<path d="M1395 1230 c3 -5 11 -10 16 -10 6 0 7 5 4 10 -3 6 -11 10 -16 10 -6
0 -7 -4 -4 -10z"/>
</g>
</svg>
